<svg width="158" height="56" viewBox="0 0 158 56" fill="none" xmlns="http://www.w3.org/2000/svg">
<g clip-path="url(#clip0_292_10866)">
<path d="M145.418 0.000182H12.5892C12.1051 0.000182 11.6267 0.000182 11.1438 0.002982C10.7396 0.005782 10.3386 0.013916 9.93045 0.020762C9.04384 0.0318245 8.15932 0.114529 7.28457 0.268156C6.41105 0.425128 5.5649 0.721064 4.77472 1.14596C3.98551 1.57444 3.26439 2.13122 2.63752 2.79608C2.00735 3.45907 1.48206 4.22541 1.08184 5.06561C0.680515 5.90414 0.402236 6.8027 0.256613 7.73026C0.109605 8.65664 0.0304982 9.59371 0.0200035 10.5331C0.00775053 10.9623 0.00645657 11.393 0 11.8223V44.1822C0.00645657 44.6169 0.00775053 45.038 0.0200035 45.4729C0.0305015 46.4122 0.109608 47.3492 0.256613 48.2755C0.401834 49.2036 0.68013 50.1027 1.08184 50.9416C1.48188 51.779 2.00724 52.5423 2.63752 53.2016C3.26202 53.8694 3.9836 54.4266 4.77472 54.8518C5.56489 55.2778 6.41096 55.5755 7.28457 55.7349C8.15947 55.8873 9.0439 55.97 9.93045 55.9824C10.3386 55.9919 10.7396 55.9974 11.1438 55.9974C11.6267 56.0002 12.1051 56.0002 12.5892 56.0002H145.418C145.892 56.0002 146.375 56.0002 146.849 55.9974C147.251 55.9974 147.664 55.9919 148.066 55.9824C148.951 55.9707 149.834 55.8879 150.707 55.7349C151.584 55.5744 152.433 55.2767 153.227 54.8518C154.017 54.4263 154.738 53.8692 155.362 53.2016C155.991 52.5397 156.517 51.777 156.922 50.9416C157.321 50.1021 157.596 49.2031 157.739 48.2755C157.887 47.3491 157.969 46.4123 157.985 45.4729C157.99 45.038 157.99 44.6169 157.99 44.1822C158 43.6736 158 43.1678 158 42.6509V13.3508C158 12.8381 158 12.3295 157.99 11.8223C157.99 11.393 157.99 10.9623 157.985 10.533C157.969 9.59357 157.887 8.65671 157.739 7.7302C157.596 6.80318 157.32 5.90469 156.922 5.06555C156.107 3.38146 154.815 2.01062 153.227 1.14583C152.433 0.721976 151.583 0.426119 150.707 0.26803C149.834 0.113726 148.951 0.0309929 148.066 0.020566C147.664 0.013734 147.251 0.00553 146.849 0.0028C146.375 0 145.892 0.000182 145.418 0.000182Z" fill="#A6A6A6"/>
<path d="M11.1503 54.775C10.748 54.775 10.3554 54.7695 9.95627 54.76C9.12943 54.7486 8.30453 54.6723 7.48833 54.5317C6.72726 54.3927 5.98998 54.1342 5.30083 53.7646C4.61799 53.3981 3.99519 52.9176 3.45628 52.3414C2.90957 51.772 2.45441 51.1115 2.10884 50.3863C1.75946 49.6563 1.51766 48.8739 1.39188 48.0662C1.25605 47.1984 1.18256 46.3208 1.17204 45.4412C1.16367 45.1459 1.15271 44.1629 1.15271 44.1629V11.8221C1.15271 11.8221 1.16438 10.8541 1.17211 10.5697C1.18218 9.69147 1.25524 8.81531 1.39067 7.94882C1.51668 7.13895 1.75866 6.35425 2.10823 5.62188C2.45253 4.89712 2.90517 4.2362 3.44858 3.66475C3.99139 3.08787 4.61618 2.60484 5.30018 2.23329C5.98775 1.86493 6.72363 1.60822 7.48316 1.47178C8.30205 1.32977 9.12982 1.25299 9.95952 1.24209L11.1509 1.225H146.843L148.048 1.24278C148.87 1.25314 149.691 1.32923 150.502 1.4704C151.269 1.60856 152.013 1.86706 152.708 2.23739C154.079 2.98618 155.194 4.17083 155.897 5.6253C156.241 6.35261 156.479 7.13091 156.604 7.93378C156.741 8.80739 156.817 9.69043 156.833 10.5759C156.837 10.9724 156.837 11.3982 156.837 11.8221C156.847 12.3471 156.847 12.8468 156.847 13.3506V42.6507C156.847 43.1593 156.847 43.6556 156.837 44.156C156.837 44.6113 156.837 45.0283 156.832 45.4576C156.816 46.3272 156.741 47.1945 156.606 48.0525C156.483 48.866 156.242 49.6545 155.893 50.3905C155.545 51.1079 155.093 51.7626 154.552 52.3305C154.013 52.9098 153.389 53.3931 152.704 53.762C152.011 54.1344 151.268 54.3938 150.502 54.5317C149.686 54.673 148.861 54.7494 148.034 54.76C147.647 54.7695 147.242 54.775 146.849 54.775L145.418 54.7778L11.1503 54.775Z" fill="black"/>
<path d="M32.704 28.421C32.7182 27.2524 33.0109 26.1067 33.5549 25.0904C34.0989 24.074 34.8766 23.2201 35.8155 22.6081C35.219 21.7048 34.4322 20.9615 33.5174 20.4372C32.6026 19.9128 31.5851 19.6218 30.5457 19.5873C28.3285 19.3406 26.179 20.9941 25.0492 20.9941C23.8974 20.9941 22.1579 19.6118 20.2846 19.6527C19.073 19.6942 17.8921 20.0678 16.8571 20.7371C15.8221 21.4063 14.9682 22.3485 14.3787 23.4717C11.8252 28.1595 13.7299 35.049 16.176 38.8382C17.3999 40.6937 18.8302 42.7663 20.7017 42.6928C22.5332 42.6123 23.2172 41.4546 25.4279 41.4546C27.618 41.4546 28.2598 42.6928 30.1693 42.6461C32.1345 42.6123 33.3726 40.7824 34.5536 38.9093C35.4329 37.5872 36.1095 36.126 36.5584 34.5798C35.4167 34.0678 34.4424 33.2107 33.7569 32.1155C33.0715 31.0203 32.7053 29.7354 32.704 28.421Z" fill="white"/>
<path d="M29.0972 17.0952C30.1687 15.7314 30.6966 13.9783 30.5688 12.2084C28.9317 12.3907 27.4196 13.2203 26.3336 14.5318C25.8026 15.1726 25.3959 15.918 25.1368 16.7255C24.8777 17.5329 24.7712 18.3866 24.8235 19.2378C25.6423 19.2467 26.4523 19.0585 27.1926 18.6874C27.9329 18.3163 28.5841 17.7719 29.0972 17.0952Z" fill="white"/>
<path d="M55.8544 37.9955H49.6046L48.1037 42.6945H45.4565L51.3763 25.3093H54.1266L60.0463 42.6945H57.354L55.8544 37.9955ZM50.2519 35.8271H55.2059L52.7637 28.201H52.6954L50.2519 35.8271Z" fill="white"/>
<path d="M72.8308 36.3576C72.8308 40.2965 70.8425 42.8271 67.8421 42.8271C67.082 42.8693 66.3261 42.6837 65.6609 42.2915C64.9957 41.8993 64.4481 41.3164 64.0809 40.6095H64.0241V46.8877H61.5703V30.0193H63.9455V32.1275H63.9906C64.3748 31.4241 64.9316 30.8442 65.6018 30.4496C66.2721 30.055 67.0307 29.8605 67.7969 29.8867C70.8309 29.8867 72.8308 32.4297 72.8308 36.3576ZM70.3087 36.3576C70.3087 33.7914 69.058 32.1043 67.1496 32.1043C65.2748 32.1043 64.0138 33.827 64.0138 36.3576C64.0138 38.9115 65.2748 40.6219 67.1496 40.6219C69.058 40.6219 70.3087 38.9471 70.3087 36.3576Z" fill="white"/>
<path d="M85.9881 36.3576C85.9881 40.2965 83.9998 42.8272 80.9993 42.8272C80.2392 42.8693 79.4833 42.6837 78.8181 42.2915C78.1529 41.8993 77.6054 41.3164 77.2381 40.6095H77.1813V46.8877H74.7275V30.0193H77.1026V32.1275H77.1478C77.5319 31.4241 78.0888 30.8442 78.759 30.4496C79.4293 30.0551 80.1879 29.8605 80.9541 29.8867C83.9882 29.8867 85.9881 32.4297 85.9881 36.3576ZM83.466 36.3576C83.466 33.7914 82.2152 32.1043 80.3069 32.1043C78.4321 32.1043 77.171 33.827 77.171 36.3576C77.171 38.9115 78.4321 40.6219 80.3069 40.6219C82.2152 40.6219 83.466 38.9471 83.466 36.3576Z" fill="white"/>
<path d="M94.6839 37.8506C94.8658 39.5746 96.4453 40.7066 98.6038 40.7066C100.672 40.7066 102.16 39.5746 102.16 38.0201C102.16 36.6706 101.263 35.8626 99.1376 35.3089L97.0126 34.7661C94.0019 33.9951 92.6041 32.5021 92.6041 30.0794C92.6041 27.0798 95.0695 25.0195 98.5702 25.0195C102.035 25.0195 104.41 27.0798 104.49 30.0794H102.013C101.865 28.3445 100.512 27.2972 98.5354 27.2972C96.5587 27.2972 95.2061 28.3568 95.2061 29.899C95.2061 31.1281 96.07 31.8513 98.1834 32.405L99.9899 32.8753C103.354 33.7188 104.752 35.1517 104.752 37.6946C104.752 40.9471 102.308 42.9843 98.4219 42.9843C94.7858 42.9843 92.3307 40.995 92.1721 37.8505L94.6839 37.8506Z" fill="white"/>
<path d="M110.047 27.0197V30.0193H112.32V32.0797H110.047V39.0674C110.047 40.1529 110.502 40.6588 111.502 40.6588C111.772 40.6538 112.041 40.6337 112.309 40.5986V42.6466C111.86 42.7356 111.403 42.776 110.946 42.7669C108.526 42.7669 107.582 41.8031 107.582 39.3449V32.0797H105.844V30.0193H107.582V27.0197H110.047Z" fill="white"/>
<path d="M113.637 36.3576C113.637 32.3695 115.852 29.8635 119.307 29.8635C122.773 29.8635 124.978 32.3695 124.978 36.3576C124.978 40.3567 122.784 42.8518 119.307 42.8518C115.83 42.8518 113.637 40.3566 113.637 36.3576ZM122.477 36.3576C122.477 33.6219 121.295 32.0072 119.307 32.0072C117.318 32.0072 116.137 33.6342 116.137 36.3576C116.137 39.1043 117.318 40.7066 119.307 40.7066C121.295 40.7066 122.477 39.1043 122.477 36.3576Z" fill="white"/>
<path d="M127 30.0193H129.341V32.1767H129.398C129.556 31.5029 129.928 30.9075 130.452 30.4904C130.975 30.0734 131.619 29.8602 132.273 29.8867C132.556 29.8856 132.838 29.9182 133.114 29.9838V32.4174C132.757 32.3017 132.384 32.2486 132.011 32.2601C131.655 32.2448 131.299 32.3115 130.969 32.4555C130.64 32.5995 130.343 32.8176 130.1 33.0946C129.857 33.3717 129.674 33.7012 129.562 34.0605C129.451 34.4198 129.414 34.8005 129.454 35.1763V42.6945H127L127 30.0193Z" fill="white"/>
<path d="M144.427 38.9717C144.097 41.2726 141.984 42.8517 139.28 42.8517C135.802 42.8517 133.644 40.3812 133.644 36.4178C133.644 32.442 135.814 29.8635 139.177 29.8635C142.484 29.8635 144.564 32.2724 144.564 36.1156V37.007H136.121V37.1642C136.082 37.6307 136.137 38.1007 136.282 38.5428C136.428 38.985 136.66 39.3893 136.964 39.7289C137.269 40.0684 137.637 40.3355 138.046 40.5123C138.455 40.6892 138.895 40.7717 139.336 40.7545C139.916 40.8121 140.498 40.6697 140.996 40.3485C141.493 40.0273 141.879 39.5444 142.097 38.9717L144.427 38.9717ZM136.132 35.1887H142.109C142.131 34.7692 142.071 34.3495 141.933 33.9558C141.794 33.5621 141.581 33.203 141.306 32.9009C141.03 32.5988 140.699 32.3603 140.333 32.2004C139.966 32.0405 139.573 31.9627 139.177 31.9717C138.777 31.9691 138.381 32.0506 138.011 32.2112C137.641 32.3718 137.305 32.6085 137.022 32.9076C136.739 33.2067 136.515 33.5623 136.362 33.9538C136.209 34.3453 136.131 34.765 136.132 35.1887Z" fill="white"/>
<path d="M52.0125 20.5768H47.0985V12.2234H48.3222V19.384H52.0125V20.5768Z" fill="white"/>
<path d="M53.249 18.794C53.249 17.6593 54.0459 17.0051 55.4604 16.9121L57.0709 16.8137V16.2695C57.0709 15.6037 56.6557 15.2277 55.8537 15.2277C55.1986 15.2277 54.7448 15.4827 54.6145 15.9284H53.4785C53.5985 14.8456 54.5591 14.1511 55.9078 14.1511C57.3984 14.1511 58.2391 14.9379 58.2391 16.2695V20.5769H57.1095V19.6909H57.0167C56.8283 20.0087 56.5637 20.2678 56.2499 20.4417C55.9362 20.6156 55.5845 20.6981 55.2309 20.6807C54.9813 20.7083 54.729 20.68 54.4903 20.5978C54.2517 20.5157 54.0319 20.3814 53.8452 20.2036C53.6584 20.0259 53.5089 19.8086 53.4062 19.5658C53.3036 19.323 53.25 19.0601 53.249 18.794ZM57.0709 18.2554V17.7283L55.6189 17.8268C54.8001 17.8849 54.4288 18.1802 54.4288 18.7359C54.4288 19.3033 54.893 19.6335 55.5313 19.6335C55.7183 19.6536 55.9072 19.6336 56.0868 19.5746C56.2664 19.5157 56.433 19.4191 56.5766 19.2905C56.7203 19.1619 56.838 19.004 56.9229 18.8262C57.0078 18.6484 57.0582 18.4542 57.0709 18.2554Z" fill="white"/>
<path d="M62.2492 14.1511C63.5863 14.1511 64.4605 14.8107 64.5753 15.9223H63.4496C63.3413 15.4595 62.9145 15.1642 62.2492 15.1642C61.5941 15.1642 61.0965 15.4937 61.0965 15.9858C61.0965 16.3624 61.3969 16.5997 62.0416 16.7562L63.0293 16.9989C64.1601 17.2771 64.69 17.7926 64.69 18.7188C64.69 19.9056 63.6469 20.6985 62.2272 20.6985C60.8127 20.6985 59.8908 20.0211 59.7864 18.9041H60.961C61.0623 19.17 61.2448 19.392 61.4793 19.5347C61.7138 19.6774 61.9868 19.7324 62.2543 19.6909C62.9854 19.6909 63.5051 19.3437 63.5051 18.8398C63.5051 18.4639 63.2265 18.2205 62.6308 18.0701L61.5941 17.8151C60.4633 17.5314 59.9398 16.9934 59.9398 16.0555C59.9398 14.9379 60.9056 14.1511 62.2492 14.1511Z" fill="white"/>
<path d="M67.8155 12.7032V14.3015H69.1037V15.3494H67.8155V18.591C67.8155 19.2514 68.0721 19.5405 68.6562 19.5405C68.8058 19.54 68.9552 19.5304 69.1037 19.5118V20.5481C68.893 20.5882 68.6795 20.6094 68.4654 20.6117C67.1605 20.6117 66.6409 20.125 66.6409 18.9096V15.3494H65.697V14.3014H66.6409V12.7032H67.8155Z" fill="white"/>
<path d="M73.8771 14.2727H75.0067V15.2742H75.0943C75.243 14.9145 75.4939 14.613 75.8119 14.4117C76.13 14.2103 76.4993 14.1192 76.8685 14.1511C77.1578 14.128 77.4483 14.1742 77.7184 14.2864C77.9886 14.3985 78.2315 14.5737 78.4291 14.7988C78.6267 15.024 78.7741 15.2935 78.8601 15.5872C78.9462 15.881 78.9689 16.1915 78.9264 16.4958V20.5768H77.7531V16.8082C77.7531 15.7951 77.3379 15.2913 76.4701 15.2913C76.2737 15.2816 76.0776 15.317 75.8953 15.3952C75.713 15.4734 75.5489 15.5924 75.414 15.7441C75.2792 15.8959 75.1769 16.0767 75.1141 16.2743C75.0514 16.4719 75.0296 16.6815 75.0504 16.8889V20.5768H73.8771L73.8771 14.2727Z" fill="white"/>
<path d="M85.7695 18.8747C85.61 19.4509 85.2646 19.9492 84.7937 20.2826C84.3227 20.6161 83.7562 20.7633 83.1932 20.6985C82.8015 20.7095 82.4122 20.6299 82.0524 20.4654C81.6926 20.3009 81.3709 20.0553 81.1096 19.7457C80.8483 19.4361 80.6536 19.0699 80.5392 18.6725C80.4247 18.2752 80.3932 17.8562 80.4467 17.4446C80.3946 17.0318 80.4267 16.6119 80.5409 16.2133C80.6551 15.8148 80.8487 15.4469 81.1086 15.1346C81.3686 14.8223 81.6888 14.5729 82.0475 14.4032C82.4063 14.2335 82.7952 14.1475 83.188 14.1511C84.8424 14.1511 85.841 15.3495 85.841 17.3291V17.7632H81.642V17.8329C81.6236 18.0643 81.6511 18.2971 81.7225 18.5166C81.794 18.736 81.9079 18.9372 82.057 19.1073C82.2061 19.2773 82.387 19.4124 82.5882 19.504C82.7894 19.5955 83.0065 19.6415 83.2254 19.6389C83.5061 19.6746 83.7904 19.6211 84.0423 19.485C84.2942 19.3489 84.5022 19.1364 84.6399 18.8747L85.7695 18.8747ZM81.642 16.8431H84.645C84.6598 16.6315 84.6327 16.419 84.5654 16.2192C84.4982 16.0194 84.3922 15.8367 84.2544 15.6829C84.1165 15.5291 83.9499 15.4076 83.7651 15.3261C83.5804 15.2447 83.3816 15.2051 83.1816 15.21C82.9786 15.2073 82.7772 15.2477 82.5892 15.3288C82.4013 15.4099 82.2305 15.5301 82.087 15.6823C81.9435 15.8345 81.8302 16.0156 81.7538 16.215C81.6774 16.4143 81.6394 16.6279 81.642 16.8431Z" fill="white"/>
<path d="M87.1213 17.4221C87.1213 15.4301 88.0871 14.1682 89.5893 14.1682C89.9609 14.15 90.3296 14.2444 90.6525 14.4402C90.9753 14.6361 91.239 14.9253 91.4125 15.2742H91.5002V11.8118H92.6736V20.5768H91.5492V19.5808H91.4563C91.2694 19.9273 90.9966 20.213 90.6675 20.4068C90.3384 20.6007 89.9655 20.6954 89.5893 20.6807C88.0768 20.6808 87.1213 19.4189 87.1213 17.4221ZM88.3334 17.4221C88.3334 18.7592 88.9279 19.5638 89.922 19.5638C90.9109 19.5638 91.5222 18.7476 91.5222 17.4275C91.5222 16.1137 90.9045 15.2858 89.922 15.2858C88.9343 15.2858 88.3334 16.0959 88.3334 17.4221Z" fill="white"/>
<path d="M98.2439 15.3494H97.2665V14.3015H98.2439V13.6876C98.2439 12.4024 98.904 11.8699 100.143 11.8699C100.355 11.8688 100.567 11.8883 100.776 11.928V12.9234C100.605 12.8928 100.432 12.8775 100.258 12.8776C99.6957 12.8776 99.4005 13.1497 99.4005 13.769V14.3015H100.727V15.3495H99.4172V20.5769H98.2439V15.3494Z" fill="white"/>
<path d="M102.222 14.2727H103.351V15.2393H103.439C103.565 14.9038 103.789 14.6194 104.077 14.4269C104.366 14.2345 104.704 14.1439 105.044 14.1681C105.22 14.1656 105.395 14.1831 105.568 14.2201V15.4479C105.352 15.3991 105.133 15.3739 104.913 15.3727C104.719 15.3543 104.524 15.379 104.34 15.4452C104.156 15.5115 103.987 15.6178 103.844 15.7574C103.701 15.897 103.588 16.0667 103.51 16.2557C103.433 16.4447 103.394 16.6487 103.395 16.8547V20.5769H102.222L102.222 14.2727Z" fill="white"/>
<path d="M106.49 18.794C106.49 17.6593 107.287 17.0051 108.701 16.9121L110.312 16.8137V16.2695C110.312 15.6037 109.896 15.2277 109.094 15.2277C108.439 15.2277 107.985 15.4827 107.855 15.9284H106.719C106.839 14.8456 107.8 14.1511 109.149 14.1511C110.639 14.1511 111.48 14.9379 111.48 16.2695V20.5769H110.35V19.6909H110.257C110.069 20.0087 109.804 20.2678 109.491 20.4417C109.177 20.6156 108.825 20.6981 108.472 20.6807C108.222 20.7083 107.97 20.68 107.731 20.5978C107.492 20.5157 107.273 20.3814 107.086 20.2036C106.899 20.0258 106.75 19.8086 106.647 19.5658C106.544 19.323 106.491 19.0601 106.49 18.794ZM110.312 18.2554V17.7283L108.86 17.8268C108.041 17.8849 107.67 18.1802 107.67 18.7359C107.67 19.3033 108.134 19.6335 108.772 19.6335C108.959 19.6536 109.148 19.6335 109.328 19.5746C109.507 19.5157 109.674 19.4191 109.817 19.2905C109.961 19.1619 110.079 19.004 110.164 18.8262C110.249 18.6483 110.299 18.4542 110.312 18.2554Z" fill="white"/>
</g>
<defs>
<clipPath id="clip0_292_10866">
<rect width="158" height="56" fill="white"/>
</clipPath>
</defs>
</svg>
